<?xml version="1.0" encoding="utf-8"?>
<!-- Generator: Adobe Illustrator 23.0.0, SVG Export Plug-In . SVG Version: 6.00 Build 0)  -->
<svg version="1.1" id="Layer_1" xmlns="http://www.w3.org/2000/svg" xmlns:xlink="http://www.w3.org/1999/xlink" x="0px" y="0px"
	 viewBox="0 0 525 382" style="enable-background:new 0 0 525 382;" xml:space="preserve">
<style type="text/css">
	.st0{fill:#2B00FF;}
</style>
<path d="M-987.55,1251.24c-0.64,11.86,1.61,25.76,5.6,39.18c6.72,22.59,6.09,45.44,4.51,68.49c-0.79,11.64-0.04,23.31-0.02,34.95
	c0.03,16.87,4.69,32.77,7.58,49.01c1.91,10.75,7.33,20.47,12.77,29.95c1.55,2.71,3.12,5.35,3.96,8.41
	c2.73,9.89-0.2,13.99-10.15,15.55c-12.35,1.93-24.76-0.22-37.12,1.24c-5.68,0.67-9.76-6.34-8.13-13.19
	c1.38-5.79,3.13-11.44,3.84-17.44c2.95-24.77-4.49-47.67-11.75-70.74c-4.05-12.89-9.81-25.05-14.43-37.68
	c-6.69-18.29-7.91-37.51-9.35-56.61c-0.88-11.62-0.35-23.36-0.09-35.03c0.18-7.93-0.83-15.57-4.04-22.8
	c-8.36-18.79-10.86-38.96-12.83-59.01c-1.9-19.33-4.81-38.56-5.77-58.01c-0.58-11.69,0.4-23.27,0.52-34.9
	c0.05-4.37-0.23-7.92-5.38-9.86c-4.33-1.63-5.78-6.04-4.69-10.48c3.57-14.64,1.67-29.99,6.36-44.57c2.01-6.27,2.09-13.36,1.96-20.06
	c-0.23-11.75,2.86-22.66,7.5-33.12c3.13-7.05,1-13.79,0.53-20.68c-1.91-27.97-4.23-55.91-12.79-82.82
	c-4.72-14.84-7.86-30-10.86-45.22c-0.99-5.02-4.15-8.3-8.57-10.41c-5.62-2.68-11.23-5.41-17.02-7.68
	c-15.55-6.12-29.58-14.76-42.96-24.68c-14.37-10.67-28.66-21.41-42.36-32.96c-16.63-14.02-26.18-32.68-35.09-51.73
	c-9.89-21.12-19.58-42.35-27.94-64.14c-3.01-7.84-8.84-13.93-13.77-20.57c-8.63-11.63-12.55-25.52-18.45-38.45
	c-0.42-0.92-0.94-2.29-0.56-2.99c3.29-6.07,3.19-13.9,9.49-18.39c0.42-0.3,1.2-0.42,1.3-0.77c2.99-10.13,10.41-3.83,15.88-4.08
	c3.19-0.14,4.41,3.11,5.59,5.79c2.61,5.94,5.3,11.83,8.03,17.71c0.51,1.09,0.78,2.81,2.42,2.51c0.48-0.09,0.64-1.79,0.99-2.74
	c0.53-1.45,0.85-3.07,1.71-4.3c2.53-3.62,6.45-3.34,7.46,0.89c2.45,10.21,6.76,19.9,5.07,31.14c-3.01,19.97,5.17,36.48,18.72,50.63
	c13.31,13.88,26.25,28.03,35.4,45.14c3.69,6.89,8.64,12.42,16.01,15.21c16.61,6.3,30.07,17.14,42.98,28.91
	c8.33,7.59,18,12.22,29.55,12.01c6.14-0.11,11.84,1.68,17.21,4.35c11.55,5.74,21.69,1.32,31.66-4.11c2.86-1.56,4.23-4.54,4.29-7.88
	c0.12-7.35-0.54-14.67-4.41-21.05c-3.05-5.03-4.72-10.35-5.6-16.03c-0.76-4.87-2.05-9.36-4.58-13.83
	c-3.53-6.24-4.04-13.58-1.34-20.32c1.54-3.82,0.99-6.88-0.03-10.44c-2.5-8.73-8.25-16.26-9.32-25.5c-0.39-3.38-2.69-7.61,3.87-7.6
	c2.27,0,1.88-1.92,1.61-3.5c-0.83-4.86-1.45-9.76-2.48-14.58c-0.8-3.78,0.04-7.19,1.31-10.64c0.85-2.3,1.98-4.31,4.79-4.42
	c2.65-0.1,4.29,1.39,5.54,3.59c2.05,3.61,4.14,7.2,6.35,10.71c1.81,2.88,4.15,5.33,7.09,7.11c1.07,0.65,2.32,1.5,3.53,0.49
	c1-0.84,0.23-1.88-0.16-2.82c-1.56-3.67-3.37-8.43,0.2-10.74c4.12-2.65,7.6,1.71,10.42,4.55c4.74,4.8,8.95,9.99,16.18,11.47
	c3.43,0.7,6.44,3.36,9.73-0.46c0.95-1.1,2.95-0.15,4.43,0.39c16.53,6.04,24.59,20.96,21.11,38.45c-1.09,5.46-1.78,10.76-0.39,16.73
	c1.49,6.38-0.53,14.43-4.26,19.19c-6.68,8.52-6.85,18.13-9.07,27.61c-1.57,6.72-0.44,12.71,1.57,18.97c1.44,4.48,3.81,6.74,8.65,7.5
	c8.17,1.29,16.24,3.29,24.29,5.26c4.25,1.04,8.22,0.57,12.19-0.95c9.09-3.46,18.46-5.36,28.21-4.54c6.88,0.58,12.14-2.94,16.76-7.03
	c18.14-16.06,38.83-27.56,61.58-35.58c3.3-1.16,5.93-3.02,7.33-6.46c10.46-25.74,23.76-50.09,36.31-74.82
	c3.75-7.38,4.04-15.17,0.8-22.6c-4.84-11.08-1.48-21.43,1.96-31.78c1.29-3.89,4.34-5.66,7.4-1.4c2.99,4.17,2.94,0.54,3.35-1.16
	c1.15-4.79,2.11-9.62,3.1-14.45c0.95-4.62,1.23-9.85,8.38-8.16c1.35,0.32,2.41-0.72,3.36-1.62c0.96-0.91,2.06-1.58,3.45-1.49
	c1.87,0.11,12.63,9.48,12.76,11.41c0.19,2.81,0.19,4.49,4.26,4.45c4.2-0.04,5.02,3.85,3.97,7.58c-3.02,10.73-5.99,21.45-8.27,32.38
	c-1.11,5.35-3.55,10.41-7.09,14.59c-7.72,9.11-9.91,20.45-12.61,31.39c-4.41,17.86-8.72,35.68-14.36,53.23
	c-4.26,13.24-8.94,26.07-18.52,36.37c-10.25,11.02-22.01,20.43-33.83,29.7c-18.86,14.8-40.3,25.46-60.89,37.47
	c-5.6,3.27-11.02,6.81-16.15,10.83c-6.18,4.85-9.36,11.18-9.24,18.82c0.34,20.86-4.57,41.18-5.93,61.87
	c-1.42,21.5-2.36,42.99-1.67,64.54c0.04,1.28,0.09,2.76,0.72,3.78c9.33,15.17,7.12,32.64,9.72,49.11
	c1.69,10.74,2.78,21.18,8.44,31.15c6.25,11,6.53,23.85,5.58,36.44c-0.08,1.01-0.23,2.36-0.89,2.92c-6.86,5.78-4.93,13.62-4.98,20.94
	c-0.09,14.28-0.1,28.56-0.02,42.84c0.05,9.82-0.03,19.5,2.28,29.33c2.69,11.48-0.17,23.21-2.34,34.69
	c-0.68,3.57-1.82,7.06-0.6,10.72c2.5,7.54,1.92,15.37,2.28,23.14c0.72,15.63-7.15,26.65-18.81,35.49
	c-8.12,6.16-14.43,4.65-20.24-4.01c-0.43-0.65-1.06-1.23-1.28-1.95c-2.62-8.46-6.84-14.89-16.29-17.55
	c-4.76-1.34-6.69-7.06-8.32-11.72c-3.95-11.26-6.53-22.85-9.03-34.54c-2.87-13.41-1.12-27-3.19-40.18
	c-2.35-14.91-1.49-30.05-4.59-44.8c-0.97-4.63-0.87-9.29-1.06-13.95c-0.08-2.03,0.46-4.15-0.62-6.09c-1.5,2-0.56,4.3-0.77,6.46
	c-0.15,1.54-0.06,3.11-0.05,4.67c0.18,26.47-2.16,52.87-2.01,79.36c0.07,12.38-1.87,24.8-3.34,37.15
	C-987.24,1236.51-987.49,1242.7-987.55,1251.24z"/>
<path class="st0" d="M133.39,208.27c-0.11-2.1,0.23-4.23-0.57-6.27c-0.72-1.83-1.67-2.36-3.56-1.84c-1.4,0.38-2.74,1.01-3.79,1.98
	c-6.85,6.37-15.27,9.02-24.24,10.5c-4.32,0.71-8.6,1.76-12.62,3.5c-3.56,1.54-6.26,4.26-8.52,7.37c-4.16,5.71-6.72,12.24-9.47,18.67
	c-2.82,6.61-6.02,13.01-10.42,18.75c-6.51,8.49-15.32,12.37-25.76,13.04c-10.04,0.64-19.66-1.07-28.9-5.06
	c-1.49-0.64-2.81-1.55-4.24-2.26c-1.25-0.63-1.42-1.82-1.4-3.03c0.06-4.29,0.15-8.58,0.24-12.87c0.02-0.82-0.18-1.84,0.75-2.25
	c1.03-0.45,1.73,0.38,2.4,1c5.25,4.85,10.89,9.14,17.81,11.29c8.28,2.57,16.56,2.61,24.24-1.82c4.41-2.55,7.64-6.53,10.35-10.92
	c5.06-8.19,8.84-17.06,13.65-25.38c2.43-4.19,5.14-8.15,8.9-11.26c3.97-3.28,8.64-4.76,13.7-5.39c6.45-0.8,12.78-2.13,18.81-4.77
	c3.55-1.55,6.44-4,9.51-6.21c2.33-1.67,4.6-3.41,7.12-4.82c1.75-0.98,3.55-1.45,5.55-1.45c5.47,0,9.37,3.67,9.6,9.19
	c0.09,2.19,0.01,4.39,0.01,6.59c0.01,1.6,0.36,3.11,2,3.78c1.62,0.66,3.04-0.09,4.1-1.25c2.16-2.36,4.36-4.72,6.26-7.29
	c4.58-6.21,9.78-11.82,15.84-16.59c6.45-5.07,13.8-8.43,21.59-10.86c0.63-0.2,1.34-0.26,2-0.22c1.74,0.1,2.35,0.83,1.84,2.45
	c-1.02,3.23-1.27,6.43-0.22,9.69c0.37,1.15-0.17,1.82-1.29,1.96c-0.83,0.11-1.69,0.06-2.53,0.06c-8.98-0.01-16.27,3.89-22.53,9.96
	c-3.77,3.65-6.44,8.22-9.68,12.31c-3.08,3.88-6.08,7.91-10.64,10.28c-2.1,1.09-4.25,1.9-6.7,2.07c-6.08,0.42-8.72-3.74-9.16-8.55
	C133.28,210.98,133.39,209.62,133.39,208.27z"/>
<path class="st0" d="M524.96,238.65c0,1.95-0.1,3.92,0.03,5.86c0.12,1.95-0.74,2.99-2.5,3.64c-5.38,2-10.92,3.34-16.64,3.62
	c-7.41,0.36-14.82,0.15-22.06-1.76c-8.85-2.34-16.16-7-21.91-14.18c-4.8-6-8.44-12.73-12.48-19.2
	c-6.75-10.81-14.24-20.95-23.92-29.41c-4.68-4.09-9.53-7.87-14.76-11.19c-1.84-1.17-3.91-1.76-5.95-2.07
	c-2.49-0.38-4.64,0.92-6.04,2.98c-1.23,1.81-2.06,3.88-2.35,6.1c-0.4,3.06-0.82,6.12-1,9.22c-0.31,5.13-5.27,10.12-10.45,11.25
	c-8.71,1.9-16.39-2.96-20.32-10.48c-1.89-3.62-3.06-7.53-4.57-11.31c-2.79-6.98-8.08-10.8-15.24-12.24
	c-2.01-0.41-4.03,0.28-6.03,0.59c-2.11,0.33-2.83-0.23-2.44-2.35c0.41-2.23,0.21-4.36-0.15-6.53c-0.46-2.78,0.72-4.01,3.51-3.52
	c4.53,0.79,8.8,2.34,12.79,4.62c1.41,0.81,2.81,1.64,4.21,2.47c7.57,4.42,10.57,11.81,12.8,19.71c1.36,4.83,3.7,8.84,8.75,10.67
	c1.75,0.63,3.53,0.63,5.3,0.34c1.45-0.24,2.41-1.21,3.06-2.56c1.31-2.7,1.44-5.65,1.95-8.53c1.16-6.61,3.8-12.42,9.37-16.53
	c2.88-2.12,6.09-2.48,9.52-1.7c5.31,1.21,9.58,4.32,13.93,7.35c9.65,6.72,17.61,15.17,24.97,24.21c3.9,4.78,7.08,10.1,10.37,15.33
	c4.41,7.01,8.47,14.32,14.31,20.29c6.77,6.92,14.93,10.98,24.83,10.59c6.33-0.25,12.03-2.58,17.36-5.93
	c3.11-1.96,6.01-4.17,8.62-6.77c0.62-0.62,1.23-1.51,2.26-1.06c1.01,0.44,0.8,1.51,0.81,2.38c0.03,2.04,0.01,4.07,0.01,6.11
	C524.91,238.65,524.94,238.65,524.96,238.65z"/>
<g>
	<path d="M292.75,216.85c-2.15,2.68-4.75,4.68-4.69,8.19c0.07,4.25,0.53,8.51,0.33,12.74c-0.11,2.51-1.09,4.99-1.81,7.45
		c-0.31,1.07-1.23,1.98-1.42,3.05c-1.72,9.68-3.59,19.21-2.11,29.31c1.7,11.55,2.32,23.37,0.57,35c-0.59,3.94,0.11,6.98,2,10.01
		c2.66,4.25,1.87,8.79,1.19,13.22c-0.49,3.19-1.02,6.21-0.79,9.53c0.23,3.35-1.1,6.62-3.92,9.21c-1.13,1.03-1.43,3.44-1.35,5.18
		c0.09,2.02,1.36,3.96,1.53,5.99c0.44,5.29-1.91,9.66-5.27,13.51c-1.93,2.21-7.34,3.18-9.74,1.45c-1.13-0.82-1.73-2.7-2.05-4.21
		c-1.33-6.15-0.04-12.09,1.8-17.95c0.83-2.65,1.55-5.33,2.41-7.97c0.57-1.74,0.5-2.01-1.24-2.74c0.38-0.49,1.19-1.1,1.11-1.51
		c-0.82-3.98-1.38-8.09-2.86-11.82c-1.22-3.07-1.67-6.07-1.36-9.18c0.58-5.79-0.69-11.24-2.33-16.7c-0.64-2.15-0.98-4.45-1.05-6.69
		c-0.4-12.49-0.74-24.99-0.95-37.48c-0.05-2.98-0.67-5.58-2.17-8.18c-1.1-1.9-1.88-4.18-2.1-6.36c-0.95-9.63-1.63-19.28-2.41-28.93
		c-0.01-0.09-0.03-0.17-0.04-0.26c-0.4-6.33-0.71-12.59-2.21-18.88c-1.29-5.42-0.9-11.28-0.97-16.95
		c-0.08-6.72-1.79-13.08-3.55-20.06c-1.6,1.01-3.03,1.64-4.11,2.64c-3.65,3.38-7.17,6.91-10.76,10.36
		c-3.54,3.41-5.11,3.83-9.23,1.13c-8.54-5.61-16.9-11.5-25.33-17.28c-2.66-1.83-5.32-3.66-7.95-5.55c-2.04-1.47-3.28-3.52-3.14-6.04
		c0.54-9.28,2.34-18.34,5.51-27.09c0.71-1.95,1.84-3.74,2.84-5.57c0.23-0.42,0.66-0.82,1.09-1.02c5.41-2.5,11.07-3.62,17.05-3.16
		c2.34,0.18,4.99,0.66,6.99-0.2c2.04-0.87,3.61-3.1,5.1-4.95c0.95-1.19,1.21-2.92,2.12-4.16c1.44-1.96,0.75-2.89-1.05-4.1
		c-5.27-3.56-10.62-7.06-15.51-11.1c-5.08-4.19-9.88-8.78-14.38-13.6c-3.67-3.93-6.58-8.56-10.09-12.66
		c-4.87-5.7-9.97-11.2-14.97-16.79c-0.58-0.64-1.15-1.29-1.7-1.91c3.49-5.04,3.27-8.35-0.33-13.48c-2.1-2.99-4.44-6.07-5.49-9.47
		c-0.98-3.17-1.25-7.11-0.23-10.18c1.02-3.08,4.22-5.23,7.86-5.79c0.51-0.08,1.11,0.05,1.54-0.17c2.37-1.19,3.61,0.18,4.63,1.99
		c0.93,1.67,1.87,3.35,2.63,5.1c0.26,0.61,0.05,1.47-0.06,2.19c-0.05,0.3-0.4,0.56-0.6,0.85c-4.21,6.29-2.59,13.36,3.97,17.39
		c0.58,0.36,1.08,0.88,1.52,1.41c4.38,5.22,8.61,10.58,13.14,15.67c4.3,4.82,8.74,9.54,13.45,13.95c2.3,2.15,5.4,3.44,8.07,5.22
		c4.16,2.78,8.33,5.56,12.37,8.5c2.2,1.6,3.93,1.73,6.13-0.05c1.9-1.53,3.8-3.08,5.75-4.54c1.97-1.47,3.85-1.51,5.48,0.59
		c1.39,1.79,2.72,3.63,4.24,5.31c0.76,0.84,1.87,1.36,2.8,2.04c1.07,0.79,2.13,1.59,3.31,2.48c3.63-1.45,4.87-3.53,3.89-7.4
		c-0.65-2.57-1.05-5.25-3.47-7.1c-0.83-0.63-1.38-2.18-1.34-3.28c0.16-5.39,0.28-10.81,1.02-16.13c0.33-2.4,1.93-4.69,3.2-6.89
		c1.05-1.82,0.91-3.26-0.6-5.44c3.22-0.19,6.46-0.68,9.66-0.52c9.76,0.48,18.99,10.87,17.96,20.78c-0.05,0.52-0.13,1.13,0.08,1.56
		c2.12,4.11-0.1,6.99-2.41,10.14c-1.5,2.05-2.3,4.66-3.19,7.1c-0.59,1.63,0.34,2.76,2,2.98c1.46,0.19,2.97,0.27,4.43,0.12
		c4.86-0.5,9.63-1.14,14.17-3.32c4.71-2.26,7.14-1.1,9.2,3.76c0.85,2.02,1.71,3.49,4.21,2.43c0.23-0.1,0.57-0.17,0.76-0.07
		c4.02,2.17,7.19-0.47,10.65-1.77c3.24-1.21,6.59-2.13,9.9-3.16c2.76-0.86,4.98-2.1,6.02-5.19c1.26-3.77,3.32-7.28,4.53-11.07
		c1.19-3.71,1.36-7.6,1.25-11.57c-0.1-3.4,0.81-6.89,1.63-10.25c1.01-4.12,0.69-5.84-2.9-8.25c-1.87-1.26-2.82-2.45-2.35-4.88
		c0.3-1.55-0.36-3.27-0.5-4.91c-0.26-2.92,0.3-3.34,3.22-3.15c2.9,0.18,5.83,0.25,8.73,0.17c2.75-0.07,4.15,1.39,5.01,3.75
		c1.36,3.72,1.59,7.51,0.67,11.33c-0.5,2.07,0.03,3.48,1.84,4.68c0.9,0.59,1.41,1.77,2.42,3.12c-0.11-0.01,0.38,0.03,0.86,0.09
		c2.73,0.31,3.32,1.17,2.56,3.73c-1.43,4.77-2.88,9.53-4.3,14.3c-0.15,0.5-0.29,1.03-0.28,1.54c0.19,7.63-2.24,14.81-3.86,22.11
		c-0.39,1.74-1.87,3.59-3.37,4.67c-12.24,8.87-25.71,15.45-39.72,21.02c-5.8,2.3-8.41,7.05-9.05,13.02c-0.09,0.81,0.2,1.72,0.5,2.51
		c2.35,6.07,4.63,12.17,7.17,18.16c1.73,4.08,3.97,7.95,5.75,12.01c1.28,2.94,2.35,6,3.2,9.09c2.11,7.71,4.03,15.47,6.09,23.45
		c-2.56,0.92-4.99,1.8-7.44,2.66c-3.73,1.31-5.77,5.15-3.79,8.51c5.47,9.29,8.83,19.45,12.83,29.35c1.46,3.61,3.4,7.03,3.14,11.19
		c-0.07,1.05,0.94,2.51,1.89,3.19c1.73,1.24,2.27,2.77,2.17,4.72c-0.21,4.29-0.09,8.51,1.43,12.63c0.29,0.79-0.48,1.92-0.61,2.92
		c-0.21,1.64-0.32,3.29-0.43,4.94c-0.03,0.42,0.16,0.85,0.18,1.27c0.13,3.12,0.14,6.26,0.4,9.37c0.29,3.4-0.05,6.38-3.21,8.54
		c-0.7,0.48-1.11,2-0.99,2.95c0.82,6.31-0.77,11.91-4.44,17.05c-2.25,3.15-0.48,6.39,0.23,9.48c1.23,5.41,2.82,10.74,4.28,16.1
		c0.59,2.17,0.24,3.92-1.74,5.27c-2.07,1.41-4.44,1.93-6.4,0.54c-5.75-4.06-9.4-9.76-10.01-16.73c-0.24-2.81,0.76-5.75-0.26-8.7
		c-0.78-2.24-1.31-4.32-3.82-5.49c-2.21-1.03-5.58-8.67-4.69-10.31c1.56-2.88,3.17-5.82,5.31-8.26c2.09-2.39,3.08-4.69,2.62-7.88
		c-0.4-2.75-0.37-5.59-0.29-8.38c0.15-5.1-1.93-9.16-4.94-13.15c-2.21-2.92-3.66-6.45-5.25-9.8c-2.43-5.1-4.38-10.45-7.11-15.37
		c-2.1-3.78-5.09-7.07-7.68-10.57C295.39,220.45,294.17,218.79,292.75,216.85z"/>
</g>
</svg>
